<svg width="32" height="16" viewBox="0 0 32 16" fill="none" xmlns="http://www.w3.org/2000/svg">
<path d="M0 3C0 1.34315 1.34315 0 3 0H29C30.6569 0 32 1.34315 32 3V13C32 14.6569 30.6569 16 29 16H3C1.34315 16 0 14.6569 0 13V3Z" fill="url(#paint0_linear_3193_7447)"/>
<path fill-rule="evenodd" clip-rule="evenodd" d="M19.2525 4.15179C17.7054 4.15179 16.3742 5.03207 15.6902 6.30836L14.8459 4.48693C15.9045 3.23464 17.4842 2.4375 19.2525 2.4375C21.5137 2.4375 23.4671 3.74207 24.4125 5.63721H22.3631C21.6191 4.73721 20.5082 4.15179 19.2525 4.15179ZM19.2527 12.2646C20.5084 12.2646 21.6184 11.6792 22.3633 10.78H24.4136C23.4673 12.6743 21.5147 13.9789 19.2527 13.9789H19.2476L18.4102 12.1746C18.6827 12.232 18.9639 12.2646 19.2527 12.2646Z" fill="#221815"/>
<path fill-rule="evenodd" clip-rule="evenodd" d="M11.3613 9.87567L13.0431 6.22595L14.7239 9.87567H11.3613ZM16.6244 14H18.4998L13.0432 2L7.58667 14H9.46124L10.6707 11.3754H15.415L16.6244 14Z" fill="#E60012"/>
<defs>
<linearGradient id="paint0_linear_3193_7447" x1="0" y1="16" x2="32" y2="16" gradientUnits="userSpaceOnUse">
<stop stop-color="#FFF0B0"/>
<stop offset="1" stop-color="#FFE77F"/>
</linearGradient>
</defs>
</svg>
